PathFileType	4	(X/Y/Z)	c:/Users/goper/Files/vsCode/490R/osim_files/C15/C15_Fast_05.trc
DataRate	CameraRate	NumFrames	NumMarkers	Units                	OrigDataRate	OrigDataStartFrame	OrigNumFrames
250.00	250.00	8	36	mm	250.0	1017	2711
                Frame#	Time	LPSIS			LASIS			LTH1			LTH2			LTH3			LTH4			LLFE			LMFE			LSH1			LSH2			LSH3			LSH4			LLMAL			LMMAL			LCAL			LMTP5			LTOE			LMTP1			RPSIS			RASIS			RTH1			RTH2			RTH3			RTH4			RLFE			RMFE			RSH1			RSH2			RSH3			RSH4			RLMAL			RMMAL			RCAL			RMTP1			RTOE			RMTP5		
		X1	Y1	Z1	X2	Y2	Z2	X3	Y3	Z3	X4	Y4	Z4	X5	Y5	Z5	X6	Y6	Z6	X7	Y7	Z7	X8	Y8	Z8	X9	Y9	Z9	X10	Y10	Z10	X11	Y11	Z11	X12	Y12	Z12	X13	Y13	Z13	X14	Y14	Z14	X15	Y15	Z15	X16	Y16	Z16	X17	Y17	Z17	X18	Y18	Z18	X19	Y19	Z19	X20	Y20	Z20	X21	Y21	Z21	X22	Y22	Z22	X23	Y23	Z23	X24	Y24	Z24	X25	Y25	Z25	X26	Y26	Z26	X27	Y27	Z27	X28	Y28	Z28	X29	Y29	Z29	X30	Y30	Z30	X31	Y31	Z31	X32	Y32	Z32	X33	Y33	Z33	X34	Y34	Z34	X35	Y35	Z35	X36	Y36	Z36

1017	4.06400	1575.77124	993.79028	263.25848	0.00000	0.00000	0.00000	1545.91382	569.93225	400.93124	1548.02820	523.01923	388.24362	1492.13623	571.90894	403.29245	0.00000	0.00000	0.00000	0.00000	0.00000	0.00000	1540.23364	453.30170	376.90109	1655.13464	425.28024	375.24438	1689.47766	397.46106	378.78369	1621.64917	376.88019	389.24902	1660.21350	354.59842	390.66434	1867.14111	198.20476	317.15808	0.00000	0.00000	0.00000	1916.68970	240.81049	273.31717	1862.32996	62.46212	317.74384	0.00000	0.00000	0.00000	0.00000	0.00000	0.00000	1558.69495	1001.37500	143.96439	0.00000	0.00000	0.00000	1359.17432	616.13708	40.95405	1343.48828	573.52002	54.77120	1302.60620	633.46436	58.49871	1293.84937	587.10681	64.46226	1309.27588	491.26251	89.05828	1332.79626	474.30759	201.94742	1371.13416	374.85916	65.37561	1365.79724	331.37222	64.21859	0.00000	0.00000	0.00000	1313.34021	331.51349	71.34745	1337.22876	78.25101	139.45450	1305.95715	100.17432	224.48134	1395.02026	54.55543	188.31921	1192.13501	37.27881	226.88051	1158.92029	61.49828	173.26918	1219.19202	29.84672	108.16650
1018	4.06800	1570.97375	994.03992	262.67795	0.00000	0.00000	0.00000	1537.17041	569.36725	400.90295	1538.82959	522.37360	388.23489	1483.49707	571.82367	403.40948	1487.14978	528.39227	397.93295	0.00000	0.00000	0.00000	1529.96057	453.00067	377.25870	1644.19824	425.87225	375.80853	1678.77039	398.37454	379.40393	1611.04541	377.06827	389.63382	1650.08472	356.73505	392.01215	1858.71545	201.90959	317.79929	0.00000	0.00000	0.00000	1906.19043	246.51935	274.08670	1858.72778	66.01778	317.90549	0.00000	0.00000	0.00000	0.00000	0.00000	0.00000	1553.62024	1001.91943	143.44865	0.00000	0.00000	0.00000	1355.62805	616.13306	40.82492	1340.17834	573.45300	54.70673	1298.79883	633.11249	58.17364	1290.53479	586.89551	64.20235	1306.41980	491.13800	88.93612	1330.56812	474.55005	201.90375	1369.07153	375.03665	65.79449	1363.96814	331.55307	64.55524	0.00000	0.00000	0.00000	1311.67114	331.13925	71.68123	1340.33301	78.70527	137.93546	1305.17078	99.68335	224.37683	1394.96777	54.70767	188.39449	1192.29993	37.54622	227.30304	1158.78650	61.03699	173.33929	1219.16504	29.82322	108.13898
1019	4.07200	1566.23071	994.29315	262.10645	0.00000	0.00000	0.00000	1528.42493	568.95630	400.79886	1529.66309	521.98358	388.20453	1474.80103	571.92999	403.46051	0.00000	0.00000	0.00000	0.00000	0.00000	0.00000	1521.94922	454.38556	378.74948	1636.29089	429.90353	377.89810	1671.19019	401.97836	381.10358	1600.68921	377.55948	390.07214	1641.34827	357.40515	391.98700	1850.05408	205.57567	318.42563	0.00000	0.00000	0.00000	1895.42224	252.16515	274.80823	1854.90906	69.63647	318.03836	0.00000	0.00000	0.00000	0.00000	0.00000	0.00000	1548.61365	1002.51678	142.89294	0.00000	0.00000	0.00000	1352.13953	616.19037	40.74142	1337.04272	573.58093	54.49265	1294.85168	632.99506	57.78458	1287.13672	586.48297	64.23459	1303.54919	490.96973	88.93096	1327.29089	474.39990	201.56410	1367.07397	375.36417	66.07478	1362.33472	331.73526	64.90267	0.00000	0.00000	0.00000	1309.77258	331.14517	71.41364	1337.50220	79.18333	139.05272	1304.30176	99.17362	224.03519	1394.92859	54.84529	188.44846	1191.90735	36.89188	227.15982	1158.67224	60.67728	173.42331	1219.13196	29.79597	108.12734
1020	4.07600	1561.53149	994.60199	261.53326	0.00000	0.00000	0.00000	1519.70276	568.71771	400.68356	1520.28662	521.59882	388.16623	1466.16406	572.09479	403.48965	0.00000	0.00000	0.00000	0.00000	0.00000	0.00000	1511.66333	454.38321	379.04224	1625.33118	430.61963	378.36734	1659.65894	402.42548	381.55695	1589.92371	377.90912	390.35223	1632.24768	357.85486	392.53336	1841.22180	209.19304	319.08795	0.00000	0.00000	0.00000	1884.27234	257.60910	275.48053	1850.79871	73.37402	318.10724	0.00000	0.00000	0.00000	0.00000	0.00000	0.00000	1543.63354	1002.99982	142.39995	0.00000	0.00000	0.00000	1348.67859	616.32428	40.67072	1333.51160	573.47650	54.75290	1290.71240	632.79950	56.94251	1283.79321	586.25824	64.18901	1300.80969	490.80078	88.90498	1324.77637	474.48737	202.96661	1365.19568	375.54141	66.42307	1360.80786	331.98340	65.22580	0.00000	0.00000	0.00000	1308.47961	330.82648	71.65765	1337.21912	79.16680	139.17134	1303.86694	98.78807	224.00482	1394.88342	54.96680	188.50356	1191.82678	36.75762	227.26791	1158.69092	60.34901	173.61922	1219.11108	29.81945	108.12441
1021	4.08000	1556.89233	994.95654	260.97433	0.00000	0.00000	0.00000	1510.96875	568.62427	400.53146	1511.26868	521.61835	388.01620	1457.43542	572.44415	403.51932	1459.72815	528.89850	398.16931	0.00000	0.00000	0.00000	1501.48315	454.60001	379.32462	1614.33728	431.40198	378.78503	1647.99854	402.59024	381.65524	1579.36255	378.51657	390.67188	1620.41028	358.86301	392.75970	1832.12708	212.73607	319.71167	0.00000	0.00000	0.00000	1872.76990	262.86166	276.04343	1846.44250	77.18959	318.16779	0.00000	0.00000	0.00000	0.00000	0.00000	0.00000	1538.82239	1003.56537	141.87000	0.00000	0.00000	0.00000	1345.29395	616.50372	40.59941	1330.30176	573.55603	54.70443	1288.67529	632.01251	57.79944	1280.62781	586.16577	63.98428	1298.08118	490.66351	88.88857	1322.90051	474.69952	201.89116	1363.47656	375.78827	66.49863	1359.33948	332.16879	65.52659	0.00000	0.00000	0.00000	1306.87329	330.88626	71.39954	1336.24146	78.24296	140.17987	1303.30627	98.66406	223.95071	1394.80640	55.05313	188.54289	1191.82068	36.67599	227.41597	1158.69690	60.05386	173.73213	1219.07080	29.80816	108.10505
1022	4.08400	1552.25208	995.31897	260.45279	0.00000	0.00000	0.00000	1502.22900	568.69409	400.33762	1502.02148	521.63367	387.87488	1448.83765	573.06451	403.54654	0.00000	0.00000	0.00000	0.00000	0.00000	0.00000	1488.70032	453.32532	378.29355	1603.39832	432.19888	379.17865	1637.79858	403.95837	382.42374	1568.71252	379.19803	390.94537	1609.83191	359.68823	393.14038	1822.88135	216.29324	320.25095	0.00000	0.00000	0.00000	1860.94360	267.84967	276.54355	1841.75049	81.00099	318.18658	0.00000	0.00000	0.00000	0.00000	0.00000	0.00000	1534.09302	1004.11871	141.37044	0.00000	0.00000	0.00000	1341.78772	615.45538	42.73932	0.00000	0.00000	0.00000	1285.29834	631.82782	57.66963	1277.38831	586.00537	63.89638	1295.53210	490.46158	88.86349	1319.88721	474.58411	203.00406	1361.81018	376.04178	66.91245	1358.00769	332.31342	65.60145	0.00000	0.00000	0.00000	1305.43335	330.63522	71.32970	1335.93689	77.90434	140.52588	1302.22009	98.09454	223.45137	1394.76636	55.15130	188.56320	1191.77100	36.57000	227.51421	1158.68774	59.82073	173.80696	1219.07043	29.80248	108.09766
1023	4.08800	1547.68250	995.79846	259.93030	1393.05945	964.02808	342.67844	1493.45349	568.83984	400.14313	1492.77197	521.80365	387.66547	1440.19275	573.68445	403.58002	1441.37195	529.89594	398.18155	0.00000	0.00000	0.00000	1478.48352	453.85123	378.43472	1592.48193	433.15613	379.64896	1627.67139	405.82162	383.16531	1558.04565	379.88882	391.11066	1599.14392	360.51443	393.34222	1813.36206	219.68481	320.73584	0.00000	0.00000	0.00000	1848.77234	272.29654	276.86694	1836.76428	84.80122	318.22272	0.00000	0.00000	0.00000	0.00000	0.00000	0.00000	1529.31128	1004.68158	140.93066	0.00000	0.00000	0.00000	1338.70447	616.89142	40.36150	0.00000	0.00000	0.00000	1281.93213	631.77222	57.50563	1274.23840	585.91852	63.69116	1293.07751	490.44006	88.56628	1317.06006	474.60684	201.34009	1360.29431	376.36435	67.10111	1356.76465	332.68790	65.94047	0.00000	0.00000	0.00000	1304.12720	330.55728	71.25294	1335.60938	77.59063	140.85342	1301.48962	97.67052	223.14336	1394.67334	55.23040	188.56734	1191.72351	36.49246	227.62337	1158.84241	59.59149	173.91380	1219.04736	29.77577	108.05411
1024	4.09200	1543.04272	996.24457	259.48846	0.00000	0.00000	0.00000	1484.72058	569.12207	399.90530	1483.25891	521.91681	387.57260	1431.51147	574.44415	403.57410	1432.23108	530.70953	398.19144	0.00000	0.00000	0.00000	1468.22656	454.51733	378.53613	1581.52368	433.93735	379.88809	1616.83936	406.84641	383.60492	1547.33215	380.70532	391.23572	1588.42505	361.41330	393.57074	1803.80042	223.01273	321.07944	0.00000	0.00000	0.00000	1836.68701	276.64734	277.20776	1831.39404	88.48112	318.27362	0.00000	0.00000	0.00000	0.00000	0.00000	0.00000	1524.60181	1005.22632	140.53648	0.00000	0.00000	0.00000	1335.21741	616.91895	40.57883	1321.39697	573.95966	54.22083	1278.66626	631.60852	57.27549	1271.13782	585.69019	63.34154	1290.62427	490.29706	88.44714	1312.49854	474.96219	205.03860	1358.81458	376.62766	67.27357	1355.61157	332.90137	66.08624	0.00000	0.00000	0.00000	1303.04016	330.48785	71.12083	1335.43054	77.60097	140.92543	1301.22839	97.64496	223.15846	1394.62561	55.34169	188.56989	1191.63574	36.44227	227.66287	1158.53235	59.40533	173.75742	1219.01379	29.71614	107.99863
